<svg xmlns="http://www.w3.org/2000/svg" width="18" height="16" viewBox="0 0 18 16">
  <path fill="currentColor" d="M8.522 11.223a4.252 4.252 0 0 1-3.654-5.22l3.654 5.22ZM9 12.25A8.685 8.685 0 0 1 1.5 8a8.612 8.612 0 0 1 2.76-3.213l-.907-1.3A10.112 10.112 0 0 0 0 8c1.29 2.853 4.3 5 9 5a9.847 9.847 0 0 0 2.272-.251l-1.114-1.59A8.71 8.71 0 0 1 9 12.25Zm9-4.25a10.16 10.16 0 0 1-1.634 2.843l-4.5-6.422A8.7 8.7 0 0 1 9 3.75a8.685 8.685 0 0 1 7.5 4.25ZM12.95 15.1l-1.4-2H9.5l1.4 2h2.05Zm-5.4-2H5.5l1.4 2h2.05l-1.4-2Z"/>
</svg>
