<svg xmlns="http://www.w3.org/2000/svg" width="19" height="19" viewBox="0 0 19 19">
  <path fill="#828FA3" d="M9.5 11.5a2 2 0 1 0 0-4 2 2 0 0 0 0 4Zm0 1.5a3.5 3.5 0 1 1 0-7 3.5 3.5 0 0 1 0 7ZM9.5 1a.75.75 0 0 1 .75.75v1.5a.75.75 0 0 1-1.5 0V1.75A.75.75 0 0 1 9.5 1Zm0 14a.75.75 0 0 1 .75.75v1.5a.75.75 0 0 1-1.5 0v-1.5A.75.75 0 0 1 9.5 15ZM1 9.5a.75.75 0 0 1 .75-.75h1.5a.75.75 0 0 1 0 1.5H1.75A.75.75 0 0 1 1 9.5Zm14 0a.75.75 0 0 1 .75-.75h1.5a.75.75 0 0 1 0 1.5h-1.5A.75.75 0 0 1 15 9.5Z"/>
</svg>
